<svg width="24" height="24" viewBox="0 0 24 24" xmlns="http://www.w3.org/2000/svg">
    <!--BC/AL Relationship Icon-->
    <path fill="currentColor"
        d="M7 3c-1.65 0-3 1.35-3 3v2c0 1.65 1.35 3 3 3h2v2H7c-1.65 0-3 1.35-3 3v2c0 1.65 1.35 3 3 3h10c1.65 0 3-1.35 3-3v-2c0-1.65-1.35-3-3-3h-2v-2h2c1.65 0 3-1.35 3-3V6c0-1.65-1.35-3-3-3H7zm0 2h10c.55 0 1 .45 1 1v2c0 .55-.45 1-1 1H7c-.55 0-1-.45-1-1V6c0-.55.45-1 1-1zm4 6h2v2h-2v-2zm-4 4h10c.55 0 1 .45 1 1v2c0 .55-.45 1-1 1H7c-.55 0-1-.45-1-1v-2c0-.55.45-1 1-1z" />
</svg>